mtllib material.mtl
usemtl material_0
v 2.36289000 7.58317000 6.40568000
v 2.86289000 10.58320000 6.40568000
v 2.86289000 7.58317000 6.40568000
v 2.86289000 10.58320000 6.40568000
v 2.36289000 7.58317000 6.40568000
v 2.36289000 10.58320000 6.40568000
v -0.13711100 7.58317000 6.40568000
v 0.36288900 10.58320000 6.40568000
v 0.36288900 7.58317000 6.40568000
v 0.36288900 10.58320000 6.40568000
v -0.13711100 7.58317000 6.40568000
v -0.13711100 10.58320000 6.40568000
v 2.36290000 4.46317000 3.90568000
v 1.62766000 6.07179000 3.90568000
v 2.36290000 6.71317000 3.90568000
v 2.36290000 4.46317000 3.90568000
v 1.62689000 5.10626000 3.90568000
v 1.62766000 6.07179000 3.90568000
v 2.36290000 4.46317000 3.90568000
v 1.62388000 5.03715000 3.90568000
v 1.62689000 5.10626000 3.90568000
v 2.36290000 4.46317000 3.90568000
v 1.60307000 4.97117000 3.90568000
v 1.62388000 5.03715000 3.90568000
v 2.36290000 4.46317000 3.90568000
v 1.56590000 4.91283000 3.90568000
v 1.60307000 4.97117000 3.90568000
v 2.36290000 4.46317000 3.90568000
v 1.51490000 4.86609000 3.90568000
v 1.56590000 4.91283000 3.90568000
v 2.36290000 4.46317000 3.90568000
v 1.45353000 4.83415000 3.90568000
v 1.51490000 4.86609000 3.90568000
v 2.36290000 4.46317000 3.90568000
v 1.38599000 4.81918000 3.90568000
v 1.45353000 4.83415000 3.90568000
v 2.36290000 4.46317000 3.90568000
v 1.31688000 4.82220000 3.90568000
v 1.38599000 4.81918000 3.90568000
v 2.36290000 4.46317000 3.90568000
v 1.25090000 4.84300000 3.90568000
v 1.31688000 4.82220000 3.90568000
v 1.09891000 5.06008000 3.90568000
v 0.36290200 4.46317000 3.90568000
v 1.09815000 6.09454000 3.90568000
v 1.11388000 4.99254000 3.90568000
v 0.36290200 4.46317000 3.90568000
v 1.09891000 5.06008000 3.90568000
v 1.14582000 4.93118000 3.90568000
v 0.36290200 4.46317000 3.90568000
v 1.11388000 4.99254000 3.90568000
v 1.19256000 4.88017000 3.90568000
v 0.36290200 4.46317000 3.90568000
v 1.14582000 4.93118000 3.90568000
v 1.25090000 4.84300000 3.90568000
v 0.36290200 4.46317000 3.90568000
v 1.19256000 4.88017000 3.90568000
v 0.36290200 4.46317000 3.90568000
v 1.25090000 4.84300000 3.90568000
v 2.36290000 4.46317000 3.90568000
v 1.62158000 6.14071000 3.90568000
v 2.36290000 6.71317000 3.90568000
v 1.62766000 6.07179000 3.90568000
v 1.59787000 6.20570000 3.90568000
v 2.36290000 6.71317000 3.90568000
v 1.62158000 6.14071000 3.90568000
v 1.55816000 6.26234000 3.90568000
v 2.36290000 6.71317000 3.90568000
v 1.59787000 6.20570000 3.90568000
v 1.50513000 6.30677000 3.90568000
v 2.36290000 6.71317000 3.90568000
v 1.55816000 6.26234000 3.90568000
v 1.44241000 6.33596000 3.90568000
v 2.36290000 6.71317000 3.90568000
v 1.50513000 6.30677000 3.90568000
v 1.37428000 6.34792000 3.90568000
v 2.36290000 6.71317000 3.90568000
v 1.44241000 6.33596000 3.90568000
v 1.30537000 6.34185000 3.90568000
v 2.36290000 6.71317000 3.90568000
v 1.37428000 6.34792000 3.90568000
v 0.36290200 4.46317000 3.90568000
v 1.11011000 6.16268000 3.90568000
v 1.09815000 6.09454000 3.90568000
v 1.30537000 6.34185000 3.90568000
v 0.36290200 6.71317000 3.90568000
v 2.36290000 6.71317000 3.90568000
v 1.24038000 6.31814000 3.90568000
v 0.36290200 6.71317000 3.90568000
v 1.30537000 6.34185000 3.90568000
v 1.18374000 6.27842000 3.90568000
v 0.36290200 6.71317000 3.90568000
v 1.24038000 6.31814000 3.90568000
v 1.13930000 6.22540000 3.90568000
v 0.36290200 6.71317000 3.90568000
v 1.18374000 6.27842000 3.90568000
v 1.11011000 6.16268000 3.90568000
v 0.36290200 6.71317000 3.90568000
v 1.13930000 6.22540000 3.90568000
v 0.36290200 6.71317000 3.90568000
v 1.11011000 6.16268000 3.90568000
v 0.36290200 4.46317000 3.90568000
v 1.62689000 5.10626000 3.90568000
v 1.61569000 6.00366000 3.90568000
v 1.62766000 6.07179000 3.90568000
v 1.61192000 5.17380000 3.90568000
v 1.61569000 6.00366000 3.90568000
v 1.62689000 5.10626000 3.90568000
v 1.61192000 5.17380000 3.90568000
v 1.58650000 5.94094000 3.90568000
v 1.61569000 6.00366000 3.90568000
v 1.57998000 5.23516000 3.90568000
v 1.58650000 5.94094000 3.90568000
v 1.61192000 5.17380000 3.90568000
v 1.57998000 5.23516000 3.90568000
v 1.54207000 5.88791000 3.90568000
v 1.58650000 5.94094000 3.90568000
v 1.53324000 5.28617000 3.90568000
v 1.54207000 5.88791000 3.90568000
v 1.57998000 5.23516000 3.90568000
v 1.53324000 5.28617000 3.90568000
v 1.48543000 5.84820000 3.90568000
v 1.54207000 5.88791000 3.90568000
v 1.47490000 5.32334000 3.90568000
v 1.48543000 5.84820000 3.90568000
v 1.53324000 5.28617000 3.90568000
v 1.47490000 5.32334000 3.90568000
v 1.42044000 5.82449000 3.90568000
v 1.48543000 5.84820000 3.90568000
v 1.40892000 5.34414000 3.90568000
v 1.42044000 5.82449000 3.90568000
v 1.47490000 5.32334000 3.90568000
v 1.40892000 5.34414000 3.90568000
v 1.35153000 5.81841000 3.90568000
v 1.42044000 5.82449000 3.90568000
v 1.33981000 5.34716000 3.90568000
v 1.35153000 5.81841000 3.90568000
v 1.40892000 5.34414000 3.90568000
v 1.33981000 5.34716000 3.90568000
v 1.28339000 5.83038000 3.90568000
v 1.35153000 5.81841000 3.90568000
v 1.27227000 5.33219000 3.90568000
v 1.28339000 5.83038000 3.90568000
v 1.33981000 5.34716000 3.90568000
v 1.27227000 5.33219000 3.90568000
v 1.22067000 5.85957000 3.90568000
v 1.28339000 5.83038000 3.90568000
v 1.21091000 5.30025000 3.90568000
v 1.22067000 5.85957000 3.90568000
v 1.27227000 5.33219000 3.90568000
v 1.21091000 5.30025000 3.90568000
v 1.16765000 5.90400000 3.90568000
v 1.22067000 5.85957000 3.90568000
v 1.15990000 5.25351000 3.90568000
v 1.16765000 5.90400000 3.90568000
v 1.21091000 5.30025000 3.90568000
v 1.15990000 5.25351000 3.90568000
v 1.12793000 5.96064000 3.90568000
v 1.16765000 5.90400000 3.90568000
v 1.12273000 5.19517000 3.90568000
v 1.12793000 5.96064000 3.90568000
v 1.15990000 5.25351000 3.90568000
v 1.12273000 5.19517000 3.90568000
v 1.10422000 6.02563000 3.90568000
v 1.12793000 5.96064000 3.90568000
v 1.10193000 5.12919000 3.90568000
v 1.10422000 6.02563000 3.90568000
v 1.12273000 5.19517000 3.90568000
v 1.09891000 5.06008000 3.90568000
v 1.10422000 6.02563000 3.90568000
v 1.10193000 5.12919000 3.90568000
v 1.10422000 6.02563000 3.90568000
v 1.09891000 5.06008000 3.90568000
v 1.09815000 6.09454000 3.90568000
v 1.02171000 9.58317000 5.10720000
v 1.02530000 9.58317000 5.10880000
v 1.02816000 9.58317000 5.10976000
v 3.86290000 5.38861000 2.63934000
v 3.86290000 5.38269000 2.64487000
v 3.86290000 5.37635000 2.64996000
v 3.86290000 6.62227000 2.65002000
v 3.86290000 6.61662000 2.65472000
v 3.86290000 6.61060000 2.65883000
v 3.86290000 6.05056000 2.64853000
v 3.86290000 6.04422000 2.65136000
v 3.86290000 6.03918000 2.65305000
v 3.86290000 9.50070000 2.62171000
v 3.86290000 9.49872000 2.62698000
v 3.86290000 9.49616000 2.63197000
v 3.86290000 8.09009000 2.65002000
v 3.86290000 8.08444000 2.65472000
v 3.86290000 8.07842000 2.65883000
vn 0.00000000 0.00000000 -1.00000000
vn 0.00000000 0.00000000 -1.00000000
vn 0.00000000 0.00000000 -1.00000000
vn 0.00000000 0.00000000 -1.00000000
vn 0.00000000 0.00000000 -1.00000000
vn 0.00000000 0.00000000 -1.00000000
vn 0.00000000 0.00000000 -1.00000000
vn 0.00000000 0.00000000 -1.00000000
vn 0.00000000 0.00000000 -1.00000000
vn 0.00000000 0.00000000 -1.00000000
vn 0.00000000 0.00000000 -1.00000000
vn 0.00000000 0.00000000 -1.00000000
vn 0.00000000 0.00000000 -1.00000000
vn 0.00000000 0.00000000 -1.00000000
vn 0.00000000 0.00000000 -1.00000000
vn 0.00000000 0.00000000 -1.00000000
vn 0.00000000 0.00000000 -1.00000000
vn 0.00000000 0.00000000 -1.00000000
vn 0.00000000 0.00000000 -1.00000000
vn 0.00000000 0.00000000 -1.00000000
vn 0.00000000 0.00000000 -1.00000000
vn 0.00000000 0.00000000 -1.00000000
vn 0.00000000 0.00000000 -1.00000000
vn 0.00000000 0.00000000 -1.00000000
vn 0.00000000 0.00000000 -1.00000000
vn 0.00000000 0.00000000 -1.00000000
vn 0.00000000 0.00000000 -1.00000000
vn 0.00000000 0.00000000 -1.00000000
vn 0.00000000 0.00000000 -1.00000000
vn 0.00000000 0.00000000 -1.00000000
vn 0.00000000 0.00000000 -1.00000000
vn 0.00000000 0.00000000 -1.00000000
vn 0.00000000 0.00000000 -1.00000000
vn 0.00000000 0.00000000 -1.00000000
vn 0.00000000 0.00000000 -1.00000000
vn 0.00000000 0.00000000 -1.00000000
vn 0.00000000 0.00000000 -1.00000000
vn 0.00000000 0.00000000 -1.00000000
vn 0.00000000 0.00000000 -1.00000000
vn 0.00000000 0.00000000 -1.00000000
vn 0.00000000 0.00000000 -1.00000000
vn 0.00000000 0.00000000 -1.00000000
vn 0.00000000 0.00000000 -1.00000000
vn 0.00000000 0.00000000 -1.00000000
vn 0.00000000 0.00000000 -1.00000000
vn 0.00000000 0.00000000 -1.00000000
vn 0.00000000 0.00000000 -1.00000000
vn 0.00000000 0.00000000 -1.00000000
vn 0.00000000 0.00000000 -1.00000000
vn 0.00000000 0.00000000 -1.00000000
vn 0.00000000 0.00000000 -1.00000000
vn 0.00000000 0.00000000 -1.00000000
vn 0.00000000 0.00000000 -1.00000000
vn 0.00000000 0.00000000 -1.00000000
vn 0.00000000 0.00000000 -1.00000000
vn 0.00000000 0.00000000 -1.00000000
vn 0.00000000 0.00000000 -1.00000000
vn 0.00000000 0.00000000 -1.00000000
vn 0.00000000 0.00000000 -1.00000000
vn 0.00000000 0.00000000 -1.00000000
vn 0.00000000 0.00000000 -1.00000000
vn 0.00000000 0.00000000 -1.00000000
vn 0.00000000 0.00000000 -1.00000000
vn 0.00000000 0.00000000 -1.00000000
vn 0.00000000 0.00000000 -1.00000000
vn 0.00000000 0.00000000 -1.00000000
vn 0.00000000 0.00000000 -1.00000000
vn 0.00000000 0.00000000 -1.00000000
vn 0.00000000 0.00000000 -1.00000000
vn 0.00000000 0.00000000 -1.00000000
vn 0.00000000 0.00000000 -1.00000000
vn 0.00000000 0.00000000 -1.00000000
vn 0.00000000 0.00000000 -1.00000000
vn 0.00000000 0.00000000 -1.00000000
vn 0.00000000 0.00000000 -1.00000000
vn 0.00000000 0.00000000 -1.00000000
vn 0.00000000 0.00000000 -1.00000000
vn 0.00000000 0.00000000 -1.00000000
vn 0.00000000 0.00000000 -1.00000000
vn 0.00000000 0.00000000 -1.00000000
vn 0.00000000 0.00000000 -1.00000000
vn 0.00000000 0.00000000 -1.00000000
vn 0.00000000 0.00000000 -1.00000000
vn 0.00000000 0.00000000 -1.00000000
vn 0.00000000 0.00000000 -1.00000000
vn 0.00000000 0.00000000 -1.00000000
vn 0.00000000 0.00000000 -1.00000000
vn 0.00000000 0.00000000 -1.00000000
vn 0.00000000 0.00000000 -1.00000000
vn 0.00000000 0.00000000 -1.00000000
vn 0.00000000 0.00000000 -1.00000000
vn 0.00000000 0.00000000 -1.00000000
vn 0.00000000 0.00000000 -1.00000000
vn 0.00000000 0.00000000 -1.00000000
vn 0.00000000 0.00000000 -1.00000000
vn 0.00000000 0.00000000 -1.00000000
vn 0.00000000 0.00000000 -1.00000000
vn 0.00000000 0.00000000 -1.00000000
vn 0.00000000 0.00000000 -1.00000000
vn 0.00000000 0.00000000 -1.00000000
vn 0.00000000 0.00000000 -1.00000000
vn 0.00000000 0.00000000 -1.00000000
vn 0.00000000 0.00000000 -1.00000000
vn 0.00000000 0.00000000 -1.00000000
vn 0.00000000 0.00000000 -1.00000000
vn 0.00000000 0.00000000 -1.00000000
vn 0.00000000 0.00000000 -1.00000000
vn 0.00000000 0.00000000 -1.00000000
vn 0.00000000 0.00000000 -1.00000000
vn 0.00000000 0.00000000 -1.00000000
vn 0.00000000 0.00000000 -1.00000000
vn 0.00000000 0.00000000 -1.00000000
vn 0.00000000 0.00000000 -1.00000000
vn 0.00000000 0.00000000 -1.00000000
vn 0.00000000 0.00000000 -1.00000000
vn 0.00000000 0.00000000 -1.00000000
vn 0.00000000 0.00000000 -1.00000000
vn 0.00000000 0.00000000 -1.00000000
vn 0.00000000 0.00000000 -1.00000000
vn 0.00000000 0.00000000 -1.00000000
vn 0.00000000 0.00000000 -1.00000000
vn 0.00000000 0.00000000 -1.00000000
vn 0.00000000 0.00000000 -1.00000000
vn 0.00000000 0.00000000 -1.00000000
vn 0.00000000 0.00000000 -1.00000000
vn 0.00000000 0.00000000 -1.00000000
vn 0.00000000 0.00000000 -1.00000000
vn 0.00000000 0.00000000 -1.00000000
vn 0.00000000 0.00000000 -1.00000000
vn 0.00000000 0.00000000 -1.00000000
vn 0.00000000 0.00000000 -1.00000000
vn 0.00000000 0.00000000 -1.00000000
vn 0.00000000 0.00000000 -1.00000000
vn 0.00000000 0.00000000 -1.00000000
vn 0.00000000 0.00000000 -1.00000000
vn 0.00000000 0.00000000 -1.00000000
vn 0.00000000 0.00000000 -1.00000000
vn 0.00000000 0.00000000 -1.00000000
vn 0.00000000 0.00000000 -1.00000000
vn 0.00000000 0.00000000 -1.00000000
vn 0.00000000 0.00000000 -1.00000000
vn 0.00000000 0.00000000 -1.00000000
vn 0.00000000 0.00000000 -1.00000000
vn 0.00000000 0.00000000 -1.00000000
vn 0.00000000 0.00000000 -1.00000000
vn 0.00000000 0.00000000 -1.00000000
vn 0.00000000 0.00000000 -1.00000000
vn 0.00000000 0.00000000 -1.00000000
vn 0.00000000 0.00000000 -1.00000000
vn 0.00000000 0.00000000 -1.00000000
vn 0.00000000 0.00000000 -1.00000000
vn 0.00000000 0.00000000 -1.00000000
vn 0.00000000 0.00000000 -1.00000000
vn 0.00000000 0.00000000 -1.00000000
vn 0.00000000 0.00000000 -1.00000000
vn 0.00000000 0.00000000 -1.00000000
vn 0.00000000 0.00000000 -1.00000000
vn 0.00000000 0.00000000 -1.00000000
vn 0.00000000 0.00000000 -1.00000000
vn 0.00000000 0.00000000 -1.00000000
vn 0.00000000 0.00000000 -1.00000000
vn 0.00000000 0.00000000 -1.00000000
vn 0.00000000 0.00000000 -1.00000000
vn 0.00000000 0.00000000 -1.00000000
vn 0.00000000 0.00000000 -1.00000000
vn 0.00000000 0.00000000 -1.00000000
vn 0.00000000 0.00000000 -1.00000000
vn 0.00000000 0.00000000 -1.00000000
vn 0.00000000 0.00000000 -1.00000000
vn 0.00000000 0.00000000 -1.00000000
vn 0.00000000 0.00000000 -1.00000000
vn 0.00000000 0.00000000 -1.00000000
vn 0.00000000 0.00000000 -1.00000000
vn 0.00000000 0.00000000 -1.00000000
vn 0.00000000 1.00000000 -0.00000000
vn 0.00000000 1.00000000 -0.00000000
vn 0.00000000 1.00000000 -0.00000000
vn 1.00000000 -0.00000000 -0.00000000
vn 1.00000000 -0.00000000 -0.00000000
vn 1.00000000 -0.00000000 -0.00000000
vn 1.00000000 -0.00000000 -0.00000000
vn 1.00000000 -0.00000000 -0.00000000
vn 1.00000000 -0.00000000 -0.00000000
vn 1.00000000 -0.00000000 -0.00000000
vn 1.00000000 -0.00000000 -0.00000000
vn 1.00000000 -0.00000000 -0.00000000
vn 1.00000000 -0.00000000 -0.00000000
vn 1.00000000 -0.00000000 -0.00000000
vn 1.00000000 -0.00000000 -0.00000000
vn 1.00000000 -0.00000000 -0.00000000
vn 1.00000000 -0.00000000 -0.00000000
vn 1.00000000 -0.00000000 -0.00000000
f 1//1 2//2 3//3
f 4//4 5//5 6//6
f 7//7 8//8 9//9
f 10//10 11//11 12//12
f 13//13 14//14 15//15
f 16//16 17//17 18//18
f 19//19 20//20 21//21
f 22//22 23//23 24//24
f 25//25 26//26 27//27
f 28//28 29//29 30//30
f 31//31 32//32 33//33
f 34//34 35//35 36//36
f 37//37 38//38 39//39
f 40//40 41//41 42//42
f 43//43 44//44 45//45
f 46//46 47//47 48//48
f 49//49 50//50 51//51
f 52//52 53//53 54//54
f 55//55 56//56 57//57
f 58//58 59//59 60//60
f 61//61 62//62 63//63
f 64//64 65//65 66//66
f 67//67 68//68 69//69
f 70//70 71//71 72//72
f 73//73 74//74 75//75
f 76//76 77//77 78//78
f 79//79 80//80 81//81
f 82//82 83//83 84//84
f 85//85 86//86 87//87
f 88//88 89//89 90//90
f 91//91 92//92 93//93
f 94//94 95//95 96//96
f 97//97 98//98 99//99
f 100//100 101//101 102//102
f 103//103 104//104 105//105
f 106//106 107//107 108//108
f 109//109 110//110 111//111
f 112//112 113//113 114//114
f 115//115 116//116 117//117
f 118//118 119//119 120//120
f 121//121 122//122 123//123
f 124//124 125//125 126//126
f 127//127 128//128 129//129
f 130//130 131//131 132//132
f 133//133 134//134 135//135
f 136//136 137//137 138//138
f 139//139 140//140 141//141
f 142//142 143//143 144//144
f 145//145 146//146 147//147
f 148//148 149//149 150//150
f 151//151 152//152 153//153
f 154//154 155//155 156//156
f 157//157 158//158 159//159
f 160//160 161//161 162//162
f 163//163 164//164 165//165
f 166//166 167//167 168//168
f 169//169 170//170 171//171
f 172//172 173//173 174//174
f 175//175 176//176 177//177
f 178//178 179//179 180//180
f 181//181 182//182 183//183
f 184//184 185//185 186//186
f 187//187 188//188 189//189
f 190//190 191//191 192//192

